# 3D model pellet.obj
mtllib pellet.mtl
g Cube_1
usemtl Material
v -5.999997 -17.5 6.749994
v -4.434508 -17.5 11.430404
v -8.869015 -17.5 11.430403
v -8.869014 -17.5 6.441583
v -6.0 15.461729 6.749996
v -11.999997 15.461729 6.749993
v -9.196954 15.461731 13.499989
v -4.59848 15.461731 13.499991
v 11.99999 8.75 6.750002
v 11.99999 15.461729 6.750004
v 9.196942 15.461731 13.500001
v 9.196944 8.75 13.5
v -4.598479 8.75 13.499991
v -9.196954 8.75 13.49999
v -11.999993 8.75 -6.749998
v -11.999994 17.5 -2.960887
v -11.999993 17.5 -13.499993
v -11.999993 8.75 -13.499995
v -5.999994 -8.75 -13.499995
v -5.999994 -17.5 -13.499996
v -11.99999 -17.5 -13.499998
v -11.99999 -8.75 -13.499996
v -5.999995 8.75 -13.499993
v -5.999994 -5.749481 -13.499995
v -11.999991 -5.749481 -13.499996
v 6.0 8.75 -13.49999
v 6.0 -5.749481 -13.499991
v 0.000003 -5.749481 -13.499993
v 0.000003 8.75 -13.499991
v 5.999999 -8.75 -13.499991
v 5.999999 -17.5 -13.499993
v 0.000002 -17.5 -13.499995
v 0.000003 -8.75 -13.499993
v -11.999992 -8.75 -6.75
v -11.999993 -5.749481 -6.75
v -11.999995 -8.75 6.749993
v -11.999995 -5.749481 6.749993
v -11.999994 -5.749481 -0.000003
v -11.999993 -8.75 -0.000004
v -11.999995 8.75 6.749993
v -11.999995 15.461729 -0.000002
v -11.999994 8.75 -0.000003
v -4.323018 -8.75 10.951337
v -4.598478 -5.749482 13.499991
v -9.196954 -5.749482 13.49999
v -8.646031 -8.75 10.951336
v 4.323012 -8.75 10.951338
v 4.598471 -5.749482 13.499995
v -0.000004 -5.749482 13.499993
v -0.000002 -8.75 10.951337
v 4.59847 8.75 13.499996
v 4.598468 15.461731 13.499998
v -0.000006 15.461731 13.499995
v -0.000005 8.75 13.499993
v 11.999993 -8.75 6.749998
v 11.999991 -5.749481 6.75
v 9.196945 -5.749482 13.499996
v 8.646028 -8.75 10.951339
v 11.999994 -8.75 -6.749994
v 11.999995 -5.749481 -6.749993
v 11.999993 -5.749481 0.000004
v 11.999994 -8.75 0.000002
v 11.999995 8.75 -6.749991
v 11.999997 17.5 -2.960878
v 11.999993 15.461729 0.000007
v 11.999993 8.75 0.000006
v 5.999993 15.461729 6.750001
v -0.000004 15.461729 6.749998
v 5.999999 17.5 -2.960881
v 0.000001 17.5 -2.960882
v -0.000002 15.461729 0.000002
v 5.999995 15.461729 0.000005
v -5.999997 17.5 -2.960885
v -5.999999 15.461729 0.0
v -5.999995 -17.5 -6.75
v -5.999996 -17.5 -0.000003
v -11.999993 -17.5 -0.000004
v -11.999991 -17.5 -6.75
v 5.999998 -17.5 -6.749997
v 5.999997 -17.5 0.0
v 0.000001 -17.5 -0.000002
v 0.000001 -17.5 -6.749998
v 5.999997 -17.5 6.749996
v 4.434506 -17.5 11.430405
v 0.0 -17.5 11.430404
v 0.0 -17.5 6.749995
v 11.999994 -17.5 0.000001
v 8.869014 -17.5 6.441585
v 8.869014 -17.5 11.430405
v 11.999994 -17.5 -13.499992
v 11.999994 -17.5 -6.749996
v 0.000003 17.5 -13.49999
v -5.999996 17.5 -13.499991
v 12.0 17.5 -13.499986
v 6.000001 17.5 -13.499989
v 11.999997 -5.749481 -13.49999
v 11.999998 8.75 -13.499988
v 11.999995 -8.75 -13.49999
vn 0.0 -1.0 0.0
vn 0.0 1.0 0.0
vn 0.92353487 0.0 0.3835145
vn 0.0 0.0 1.0
vn -1.0 0.0 0.0
vn 0.0 0.0 -1.0
vn 0.0 -0.6473756 0.7621712
vn 0.8376025 -0.27690083 0.4709014
vn 1.0 0.0 0.0
vn 0.0 0.8237121 0.56700826
vn 0.92862225 -0.15100361 0.3389081
vn 0.95787686 -0.17539577 0.22739452
vn 0.0 0.054700155 0.99850285
vn -0.92353487 0.0 0.3835145
vn -0.95787686 -0.17539577 0.22739452
vn -0.92862225 -0.15100361 0.3389081
vn -0.8376025 -0.27690083 0.4709014
f 1//1 2//1 3//1
f 1//1 3//1 4//1
f 5//2 6//2 7//2
f 5//2 7//2 8//2
f 9//3 10//3 11//3
f 9//3 11//3 12//3
f 13//4 8//4 7//4
f 13//4 7//4 14//4
f 15//5 16//5 17//5
f 15//5 17//5 18//5
f 19//6 20//6 21//6
f 19//6 21//6 22//6
f 23//6 24//6 25//6
f 23//6 25//6 18//6
f 26//6 27//6 28//6
f 26//6 28//6 29//6
f 30//6 31//6 32//6
f 30//6 32//6 33//6
f 34//5 35//5 25//5
f 34//5 25//5 22//5
f 36//5 37//5 38//5
f 36//5 38//5 39//5
f 40//5 6//5 41//5
f 40//5 41//5 42//5
f 43//7 44//7 45//7
f 43//7 45//7 46//7
f 47//7 48//7 49//7
f 47//7 49//7 50//7
f 51//4 52//4 53//4
f 51//4 53//4 54//4
f 55//8 56//8 57//8
f 55//8 57//8 58//8
f 59//9 60//9 61//9
f 59//9 61//9 62//9
f 63//9 64//9 65//9
f 63//9 65//9 66//9
f 67//2 68//2 53//2
f 67//2 53//2 52//2
f 69//10 70//10 71//10
f 69//10 71//10 72//10
f 73//10 16//10 41//10
f 73//10 41//10 74//10
f 75//1 76//1 77//1
f 75//1 77//1 78//1
f 79//1 80//1 81//1
f 79//1 81//1 82//1
f 83//1 84//1 85//1
f 83//1 85//1 86//1
f 80//1 83//1 86//1
f 80//1 86//1 81//1
f 87//1 88//1 83//1
f 87//1 83//1 80//1
f 88//1 89//1 84//1
f 88//1 84//1 83//1
f 31//1 79//1 82//1
f 31//1 82//1 32//1
f 90//1 91//1 79//1
f 90//1 79//1 31//1
f 91//1 87//1 80//1
f 91//1 80//1 79//1
f 20//1 75//1 78//1
f 20//1 78//1 21//1
f 32//1 82//1 75//1
f 32//1 75//1 20//1
f 82//1 81//1 76//1
f 82//1 76//1 75//1
f 70//10 73//10 74//10
f 70//10 74//10 71//10
f 92//2 93//2 73//2
f 92//2 73//2 70//2
f 93//2 17//2 16//2
f 93//2 16//2 73//2
f 64//10 69//10 72//10
f 64//10 72//10 65//10
f 94//2 95//2 69//2
f 94//2 69//2 64//2
f 95//2 92//2 70//2
f 95//2 70//2 69//2
f 10//2 67//2 52//2
f 10//2 52//2 11//2
f 65//2 72//2 67//2
f 65//2 67//2 10//2
f 72//2 71//2 68//2
f 72//2 68//2 67//2
f 60//9 63//9 66//9
f 60//9 66//9 61//9
f 96//9 97//9 63//9
f 96//9 63//9 60//9
f 97//9 94//9 64//9
f 97//9 64//9 63//9
f 91//9 59//9 62//9
f 91//9 62//9 87//9
f 90//9 98//9 59//9
f 90//9 59//9 91//9
f 98//9 96//9 60//9
f 98//9 60//9 59//9
f 88//11 55//11 58//11
f 88//11 58//11 89//11
f 87//12 62//12 55//12
f 87//12 55//12 88//12
f 62//9 61//9 56//9
f 62//9 56//9 55//9
f 48//4 51//4 54//4
f 48//4 54//4 49//4
f 57//4 12//4 51//4
f 57//4 51//4 48//4
f 12//4 11//4 52//4
f 12//4 52//4 51//4
f 84//13 47//13 50//13
f 84//13 50//13 85//13
f 89//13 58//13 47//13
f 89//13 47//13 84//13
f 58//7 57//7 48//7
f 58//7 48//7 47//7
f 2//13 43//13 46//13
f 2//13 46//13 3//13
f 85//13 50//13 43//13
f 85//13 43//13 2//13
f 50//7 49//7 44//7
f 50//7 44//7 43//7
f 37//5 40//5 42//5
f 37//5 42//5 38//5
f 45//14 14//14 40//14
f 45//14 40//14 37//14
f 14//14 7//14 6//14
f 14//14 6//14 40//14
f 4//15 36//15 39//15
f 4//15 39//15 77//15
f 3//16 46//16 36//16
f 3//16 36//16 4//16
f 46//17 45//17 37//17
f 46//17 37//17 36//17
f 78//5 34//5 22//5
f 78//5 22//5 21//5
f 77//5 39//5 34//5
f 77//5 34//5 78//5
f 39//5 38//5 35//5
f 39//5 35//5 34//5
f 27//6 30//6 33//6
f 27//6 33//6 28//6
f 96//6 98//6 30//6
f 96//6 30//6 27//6
f 98//6 90//6 31//6
f 98//6 31//6 30//6
f 95//6 26//6 29//6
f 95//6 29//6 92//6
f 94//6 97//6 26//6
f 94//6 26//6 95//6
f 97//6 96//6 27//6
f 97//6 27//6 26//6
f 93//6 23//6 18//6
f 93//6 18//6 17//6
f 92//6 29//6 23//6
f 92//6 23//6 93//6
f 29//6 28//6 24//6
f 29//6 24//6 23//6
f 24//6 19//6 22//6
f 24//6 22//6 25//6
f 28//6 33//6 19//6
f 28//6 19//6 24//6
f 33//6 32//6 20//6
f 33//6 20//6 19//6
f 35//5 15//5 18//5
f 35//5 18//5 25//5
f 38//5 42//5 15//5
f 38//5 15//5 35//5
f 42//5 41//5 16//5
f 42//5 16//5 15//5
f 44//4 13//4 14//4
f 44//4 14//4 45//4
f 49//4 54//4 13//4
f 49//4 13//4 44//4
f 54//4 53//4 8//4
f 54//4 8//4 13//4
f 56//3 9//3 12//3
f 56//3 12//3 57//3
f 61//9 66//9 9//9
f 61//9 9//9 56//9
f 66//9 65//9 10//9
f 66//9 10//9 9//9
f 68//2 5//2 8//2
f 68//2 8//2 53//2
f 71//2 74//2 5//2
f 71//2 5//2 68//2
f 74//2 41//2 6//2
f 74//2 6//2 5//2
f 76//1 1//1 4//1
f 76//1 4//1 77//1
f 81//1 86//1 1//1
f 81//1 1//1 76//1
f 86//1 85//1 2//1
f 86//1 2//1 1//1
