# 3D model queen.obj
mtllib queen.mtl
g Cube_1
usemtl Material
v 29.999987 -12.5 -39.999977
v 29.999987 -12.5 39.99998
v -29.99999 -12.5 39.999973
v -29.999975 -12.5 -39.999996
v 30.0 12.5 -39.999958
v -29.999985 12.5 -39.99998
v -29.999998 12.5 39.999966
v 29.999968 12.5 40.000004
vn 0.0 -1.0 0.0
vn 0.0 1.0 0.0
vn 1.0 0.0 0.0
vn 0.0 0.0 1.0
vn -1.0 -0.0 -0.0
vn 0.0 0.0 -1.0
f 1//1 2//1 3//1
f 1//1 3//1 4//1
f 5//2 6//2 7//2
f 5//2 7//2 8//2
f 1//3 5//3 8//3
f 1//3 8//3 2//3
f 2//4 8//4 7//4
f 2//4 7//4 3//4
f 3//5 7//5 6//5
f 3//5 6//5 4//5
f 5//6 1//6 4//6
f 5//6 4//6 6//6
